<?xml version="1.0" encoding="utf-8"?>
<!-- Generator: Adobe Illustrator 23.0.3, SVG Export Plug-In . SVG Version: 6.00 Build 0)  -->
<svg version="1.1" id="Layer_1" xmlns="http://www.w3.org/2000/svg" xmlns:xlink="http://www.w3.org/1999/xlink" x="0px" y="0px"
	 viewBox="0 0 1366 768" style="enable-background:new 0 0 1366 768;" xml:space="preserve">
<style type="text/css">
	.st0{fill:#FFFFFF;stroke:#000000;stroke-miterlimit:10;}
	.st1{fill:#0000FF;}
	.st2{fill:#C1272D;}
	.st3{fill:#FBB03B;}
	.st4{fill:#FFFFFF;}
	.st5{fill:none;stroke:#000000;stroke-miterlimit:10;}
	.st6{fill:none;}
	.st7{font-family:'Noteworthy-Light';}
	.st8{font-size:24px;}
</style>
<path class="st0" d="M512.5,734.5"/>
<path class="st0" d="M512.5,757.5"/>
<path class="st0" d="M512.5,735"/>
<path class="st0" d="M560.5,722.5"/>
<path class="st0" d="M512.5,735.5"/>
<g id="XMLID_1_">
	<g>
		<path class="st1" d="M916.5,520.5c0,14.31-1.92,28.21-5.52,41.5c-12.15-44.85-43.53-82.76-85.67-105.97
			c9.28-21.13,17.39-43.9,23.23-67.9C890.06,419.67,916.5,467.26,916.5,520.5z"/>
		<path class="st2" d="M848.54,388.13c-5.84,24-13.95,46.77-23.23,67.9c-28.28-15.57-61.39-24.53-96.81-24.53
			c-36.59,0-70.73,9.56-99.61,26.11c-9.28-20.91-17.43-43.45-23.37-67.21c32.97-26.11,75.96-41.9,122.98-41.9
			C774.14,348.5,815.98,363.38,848.54,388.13z"/>
		<path class="st2" d="M724.31,164.19c41.18,0.07,82.95-4.48,94.84-13.63c0.05,0.09,0.09,0.17,0.13,0.26
			c21.87,45.9,38.97,100.54,38.97,159.18c0,27.05-3.64,53.25-9.71,78.13c-32.56-24.75-74.4-39.63-120.04-39.63
			c-47.02,0-90.01,15.79-122.98,41.9c-6.41-25.56-10.27-52.53-10.27-80.4c0-58.1,16.79-112.28,38.36-157.91
			C646.8,160.23,685.51,164.26,724.31,164.19z M762.81,261c0-20.71-16.79-37.5-37.5-37.5s-37.5,16.79-37.5,37.5
			s16.79,37.5,37.5,37.5S762.81,281.71,762.81,261z"/>
		<path class="st2" d="M812.42,140.4c1.67,3.29,3.31,6.62,4.93,10.01c-11.23,8.94-50.83,13.54-90.85,13.77v-0.01V128.5
			c0.5,0,1,0,1.5,0c31.33,0,60.23,3.72,83.44,9.99C811.77,139.12,812.1,139.76,812.42,140.4z"/>
		<path class="st2" d="M819.15,150.56c-11.89,9.15-53.66,13.7-94.84,13.63c0.73-0.01,1.46-0.01,2.19-0.01
			c40.02-0.23,79.62-4.83,90.85-13.77c-1.62-3.39-3.26-6.72-4.93-10.01c-0.32-0.64-0.65-1.28-0.98-1.91
			c-23.21-6.27-52.11-9.99-83.44-9.99c-0.5,0-1,0-1.5,0V15.82c0.14-0.14,0.24-0.24,0.28-0.28c0.01-0.01,0.01,0,0.01,0
			C728.42,17.19,781.01,70.57,819.15,150.56z"/>
		<path class="st2" d="M724.5,443.86c-0.17-0.24-0.25-0.36-0.25-0.36s-22.12,31.35-29.43,74H676.5v14.53
			c-2,0.38-3.97,0.78-5.91,1.21c-14.2-21.46-29.01-47.02-41.7-75.63c28.88-16.55,63.02-26.11,99.61-26.11
			c35.42,0,68.53,8.96,96.81,24.53c-12.84,29.25-27.94,55.36-42.4,77.21c-3.37-0.74-6.84-1.42-10.41-2.02V517.5h-18.82
			C746.82,477.49,726.93,447.42,724.5,443.86z"/>
		<path d="M772.5,531.22v17.28h-16.57c0.05-1.49,0.07-2.99,0.07-4.5c0-5.13-0.27-10.18-0.77-15.1
			C761.19,529.49,766.96,530.27,772.5,531.22z"/>
		<path class="st2" d="M772.5,517.5v13.72c-5.54-0.95-11.31-1.73-17.27-2.32c-0.38-3.88-0.91-7.68-1.55-11.4H772.5z"/>
		<path d="M756,544c0,1.51-0.02,3.01-0.07,4.5H724.5v-20.99c0.75-0.01,1.5-0.01,2.25-0.01c9.83,0,19.38,0.48,28.48,1.4
			C755.73,533.82,756,538.87,756,544z"/>
		<path class="st3" d="M724.5,548.5h31.43c-1.55,50.58-28.57,91.45-31.43,95.64V548.5z"/>
		<path class="st4" d="M819.15,150.56c-38.14-79.99-90.73-133.37-92.36-135.02c0.02-0.03,0.03-0.04,0.03-0.04
			s48.55,48.53,86.62,122.99c0.33,0.63,0.66,1.27,0.98,1.91c1.67,3.29,3.31,6.62,4.93,10.01
			C819.29,150.46,819.22,150.51,819.15,150.56z"/>
		<path class="st2" d="M753.68,517.5c0.64,3.72,1.17,7.52,1.55,11.4c-9.1-0.92-18.65-1.4-28.48-1.4c-0.75,0-1.5,0-2.25,0.01V517.5
			H753.68z"/>
		<path class="st2" d="M753.68,517.5H724.5v-73.64C726.93,447.42,746.82,477.49,753.68,517.5z"/>
		<path class="st1" d="M725.31,223.5c20.71,0,37.5,16.79,37.5,37.5s-16.79,37.5-37.5,37.5s-37.5-16.79-37.5-37.5
			S704.6,223.5,725.31,223.5z M752.94,262c0-15.19-12.37-27.5-27.63-27.5c-15.25,0-27.62,12.31-27.62,27.5s12.37,27.5,27.62,27.5
			C740.57,289.5,752.94,277.19,752.94,262z"/>
		<path d="M725.31,234.5c15.26,0,27.63,12.31,27.63,27.5s-12.37,27.5-27.63,27.5c-15.25,0-27.62-12.31-27.62-27.5
			S710.06,234.5,725.31,234.5z"/>
		<path class="st4" d="M726.75,15.5c0,0,0.01,0.01,0.03,0.04c-0.04,0.04-0.14,0.14-0.28,0.28v-0.07
			C726.67,15.59,726.75,15.5,726.75,15.5z"/>
		<path class="st2" d="M726.5,164.17L726.5,164.17c-0.73,0.01-1.46,0.01-2.19,0.02c-39.74-0.07-78.93-4.45-90.21-13.14
			c1.8-3.78,3.63-7.49,5.48-11.15c23.63-7.01,53.89-11.27,86.92-11.4V164.17z"/>
		<path class="st2" d="M726.5,15.82V128.5c-33.03,0.13-63.29,4.39-86.92,11.4c18.14-35.76,38.71-65.61,55.31-87.1
			c0.57-0.74,1.14-1.48,1.71-2.2c1.85-2.38,3.65-4.64,5.39-6.79C715.14,27.54,724.67,17.69,726.5,15.82z"/>
		<path class="st4" d="M726.5,15.75v0.07c-1.83,1.87-11.36,11.72-24.51,27.99C715.28,27.32,724.86,17.43,726.5,15.75z"/>
		<path class="st3" d="M724.5,548.5v95.64c-0.17,0.24-0.25,0.36-0.25,0.36s-30.05-42.59-31.68-96H724.5z"/>
		<path d="M724.5,527.51v20.99h-31.93c-0.05-1.49-0.07-2.99-0.07-4.5c0-4.94,0.25-9.79,0.72-14.54
			C703.14,528.26,713.64,527.59,724.5,527.51z"/>
		<path class="st2" d="M724.5,517.5v10.01c-10.86,0.08-21.36,0.75-31.28,1.95c0.38-4.07,0.93-8.06,1.6-11.96H724.5z"/>
		<path class="st2" d="M724.5,443.86v73.64h-29.68c7.31-42.65,29.43-74,29.43-74S724.33,443.62,724.5,443.86z"/>
		<path class="st4" d="M724.31,164.19c-38.8,0.07-77.51-3.96-90.7-12.1c0.11-0.24,0.22-0.47,0.33-0.7c0.05-0.11,0.11-0.23,0.16-0.34
			C645.38,159.74,684.57,164.12,724.31,164.19z"/>
		<path class="st4" d="M696.6,50.6c-0.57,0.72-1.14,1.46-1.71,2.2C695.46,52.05,696.03,51.32,696.6,50.6z"/>
		<path class="st2" d="M676.5,517.5h18.32c-0.67,3.9-1.22,7.89-1.6,11.96c-5.78,0.68-11.37,1.54-16.72,2.57V517.5z"/>
		<path d="M692.57,548.5H676.5v-16.47c5.35-1.03,10.94-1.89,16.72-2.57c-0.47,4.75-0.72,9.6-0.72,14.54
			C692.5,545.51,692.52,547.01,692.57,548.5z"/>
		<path class="st4" d="M694.89,52.8c-16.6,21.49-37.17,51.34-55.31,87.1c-0.04,0.01-0.09,0.03-0.14,0.04
			C657.59,104.17,678.22,74.29,694.89,52.8z"/>
		<path class="st4" d="M637.34,144.13c0.58-1.16,1.16-2.32,1.73-3.47c0.12-0.24,0.24-0.48,0.37-0.72c0.05-0.01,0.1-0.03,0.14-0.04
			c-1.85,3.66-3.68,7.37-5.48,11.15c-0.03-0.02-0.06-0.05-0.09-0.07C635.11,148.68,636.22,146.38,637.34,144.13z"/>
		<path class="st4" d="M634.01,150.98c0.03,0.02,0.06,0.05,0.09,0.07c-0.05,0.11-0.11,0.23-0.16,0.34c-0.11,0.23-0.22,0.46-0.33,0.7
			c-0.58-0.36-1.12-0.73-1.6-1.11c1.1-2.3,2.21-4.6,3.33-6.85c0.58-1.16,1.16-2.32,1.73-3.47c0.78-0.24,1.57-0.48,2.37-0.72
			c-0.13,0.24-0.25,0.48-0.37,0.72c-0.57,1.15-1.15,2.31-1.73,3.47C636.22,146.38,635.11,148.68,634.01,150.98z"/>
		<path class="st1" d="M605.52,390.4c5.94,23.76,14.09,46.3,23.37,67.21c-40.73,23.33-70.99,60.54-82.87,104.39
			c-3.6-13.29-5.52-27.19-5.52-41.5C540.5,468.53,565.7,421.94,605.52,390.4z"/>
	</g>
	<g>
		<path class="st5" d="M633.61,152.09c-0.58-0.36-1.12-0.73-1.6-1.11c1.1-2.3,2.21-4.6,3.33-6.85c0.58-1.16,1.16-2.32,1.73-3.47
			c0.78-0.24,1.57-0.48,2.37-0.72"/>
		<path class="st5" d="M605.52,390.4c-39.82,31.54-65.02,78.13-65.02,130.1c0,14.31,1.92,28.21,5.52,41.5
			c11.88-43.85,42.14-81.06,82.87-104.39"/>
		<path class="st5" d="M825.31,456.03c42.14,23.21,73.52,61.12,85.67,105.97c3.6-13.29,5.52-27.19,5.52-41.5
			c0-53.24-26.44-100.83-67.96-132.37"/>
		<polyline class="st5" points="692.57,548.5 676.5,548.5 676.5,532.03 		"/>
		<polyline class="st5" points="772.5,531.22 772.5,548.5 755.93,548.5 		"/>
		<path class="st5" d="M701.99,43.81c13.29-16.49,22.87-26.38,24.51-28.06c0.17-0.16,0.25-0.25,0.25-0.25s0.01,0.01,0.03,0.04"/>
		<path class="st5" d="M693.22,529.46c-5.78,0.68-11.37,1.54-16.72,2.57c-2,0.38-3.97,0.78-5.91,1.21
			c-14.2-21.46-29.01-47.02-41.7-75.63c-9.28-20.91-17.43-43.45-23.37-67.21c-6.41-25.56-10.27-52.53-10.27-80.4
			c0-58.1,16.79-112.28,38.36-157.91c0.11-0.24,0.22-0.47,0.33-0.7c0.05-0.11,0.11-0.23,0.16-0.34"/>
		<path class="st5" d="M819.15,150.56c0.05,0.09,0.09,0.17,0.13,0.26c21.87,45.9,38.97,100.54,38.97,159.18
			c0,27.05-3.64,53.25-9.71,78.13c-5.84,24-13.95,46.77-23.23,67.9c-12.84,29.25-27.94,55.36-42.4,77.21
			c-3.37-0.74-6.84-1.42-10.41-2.02c-5.54-0.95-11.31-1.73-17.27-2.32"/>
		<path class="st5" d="M755.23,528.9c0.5,4.92,0.77,9.97,0.77,15.1c0,1.51-0.02,3.01-0.07,4.5c-1.55,50.58-28.57,91.45-31.43,95.64
			c-0.17,0.24-0.25,0.36-0.25,0.36s-30.05-42.59-31.68-96c-0.05-1.49-0.07-2.99-0.07-4.5c0-4.94,0.25-9.79,0.72-14.54
			c0.38-4.07,0.93-8.06,1.6-11.96c7.31-42.65,29.43-74,29.43-74s0.08,0.12,0.25,0.36c2.43,3.56,22.32,33.63,29.18,73.64
			C754.32,521.22,754.85,525.02,755.23,528.9z"/>
		<path class="st5" d="M726.79,15.54c0.02-0.03,0.03-0.04,0.03-0.04s48.55,48.53,86.62,122.99c0.33,0.63,0.66,1.27,0.98,1.91
			c1.67,3.29,3.31,6.62,4.93,10.01c-0.06,0.05-0.13,0.1-0.2,0.15c-11.89,9.15-53.66,13.7-94.84,13.63
			c-39.74-0.07-78.93-4.45-90.21-13.14c-0.03-0.02-0.06-0.05-0.09-0.07c1.1-2.3,2.21-4.6,3.33-6.85c0.58-1.16,1.16-2.32,1.73-3.47
			c0.12-0.24,0.24-0.48,0.37-0.72c18.15-35.77,38.78-65.65,55.45-87.14c0.57-0.75,1.14-1.48,1.71-2.2c1.85-2.38,3.65-4.64,5.39-6.79
			c13.15-16.27,22.68-26.12,24.51-27.99C726.64,15.68,726.74,15.58,726.79,15.54C726.79,15.53,726.79,15.54,726.79,15.54z"/>
		<circle class="st5" cx="725.31" cy="261" r="37.5"/>
		<path class="st5" d="M697.69,262c0,15.19,12.37,27.5,27.62,27.5c15.26,0,27.63-12.31,27.63-27.5s-12.37-27.5-27.63-27.5
			C710.06,234.5,697.69,246.81,697.69,262z"/>
		<polyline class="st5" points="726.5,15.5 726.5,15.75 726.5,15.82 726.5,128.5 726.5,164.17 		"/>
		<polyline class="st5" points="724.5,644.5 724.5,644.14 724.5,548.5 724.5,527.51 724.5,517.5 724.5,443.86 724.5,443.5 		"/>
	</g>
</g>
<g>
	<g>
		<path d="M-104.64,67.02c1.93,0,1.93-3,0-3C-106.57,64.02-106.57,67.02-104.64,67.02L-104.64,67.02z"/>
	</g>
</g>
<g>
	<g>
		<path d="M-159.7,338.93c1.93,0,1.93-3,0-3C-161.63,335.93-161.63,338.93-159.7,338.93L-159.7,338.93z"/>
	</g>
</g>
<path class="st0" d="M826.78,167.72c-21.76,9.32-56.84,15.46-96.62,15.77c-0.83,0-1.66,0.01-2.5,0.01H727c-0.56,0-1.12,0-1.67-0.01
	c-2.49-0.02-4.97-0.06-7.42-0.13c-0.69-0.02-1.37-0.03-2.05-0.06c-0.41-0.01-0.81-0.03-1.22-0.04c-0.54-0.02-1.07-0.04-1.61-0.06
	c-1.21-0.04-2.42-0.1-3.63-0.16c-1-0.04-2-0.1-2.99-0.15c-0.99-0.05-1.98-0.11-2.96-0.18c-0.36-0.02-0.72-0.05-1.07-0.07
	c-0.89-0.06-1.76-0.12-2.64-0.18c-0.07-0.01-0.15-0.01-0.22-0.02c-0.26-0.02-0.51-0.04-0.76-0.06c-0.42-0.03-0.83-0.06-1.25-0.1
	c-1.13-0.09-2.25-0.18-3.37-0.28c-0.99-0.09-1.98-0.18-2.96-0.28c-0.98-0.1-1.95-0.2-2.92-0.3c-0.3-0.03-0.61-0.06-0.91-0.1
	c-1-0.11-1.98-0.22-2.97-0.34c-0.91-0.11-1.83-0.22-2.73-0.33c-1.03-0.13-2.06-0.27-3.08-0.41c-0.67-0.09-1.33-0.19-1.99-0.28
	c-0.11-0.02-0.22-0.03-0.34-0.05c-0.1-0.01-0.2-0.03-0.3-0.04c-1.18-0.18-2.34-0.35-3.49-0.53c-0.16-0.03-0.31-0.05-0.46-0.08
	c-0.62-0.1-1.24-0.2-1.85-0.3c-0.69-0.11-1.37-0.23-2.05-0.35c-0.56-0.1-1.12-0.2-1.67-0.3c-0.22-0.03-0.43-0.07-0.64-0.11
	c-1.24-0.23-2.48-0.47-3.69-0.71c-0.24-0.04-0.48-0.09-0.71-0.14c-1.03-0.21-2.04-0.42-3.05-0.63c-0.68-0.15-1.35-0.3-2.02-0.45
	c-1.88-0.42-3.73-0.86-5.53-1.32c-0.6-0.15-1.2-0.3-1.79-0.46c-1.66-0.43-3.28-0.88-4.87-1.34c-0.11-0.03-0.23-0.07-0.34-0.1
	c-0.56-0.17-1.1-0.33-1.64-0.49c-0.56-0.17-1.1-0.34-1.64-0.51s-1.08-0.34-1.61-0.52c-0.53-0.17-1.06-0.35-1.58-0.53
	c-1.04-0.35-2.06-0.71-3.05-1.08c-0.37-0.13-0.72-0.27-1.08-0.4c-0.25-0.1-0.5-0.19-0.74-0.28c-0.37-0.15-0.74-0.29-1.11-0.44
	c-1.73-0.69-3.38-1.39-4.96-2.12c-0.34-0.15-0.68-0.31-1.01-0.47c2.41-5.66,4.92-11.2,7.49-16.62
	c25.17,17.2,161.95,16.76,184.5-1.18c-0.7-1.47-1.41-2.93-2.13-4.38c0.3,0.09,0.59,0.18,0.88,0.28c0.73,1.49,1.46,3,2.18,4.51
	C821.21,154.97,824.05,161.27,826.78,167.72z"/>
<rect x="608.09" y="320.97" transform="matrix(1 -4.224869e-03 4.224869e-03 1 -1.4963 3.0799)" class="st6" width="240.31" height="69.46"/>
<text transform="matrix(1 0 0 1 608.0264 340.9307)"><tspan x="0" y="0" class="st1 st7 st8">Rolling Meadows Rock</tspan><tspan x="211.95" y="0" class="st1 st7 st8">-</tspan><tspan x="0.12" y="28.8" class="st1 st7 st8">ets</tspan></text>
</svg>
